<svg version="1.2" xmlns="http://www.w3.org/2000/svg" viewBox="0 0 32 32" width="32" height="32"><style>.a{fill:#fff}</style><path fill-rule="evenodd" class="a" d="m28.8 1c1.2 0 2.2 1 2.2 2.2v25.6c0 1.2-1 2.2-2.2 2.2 0 0-25.6 0-25.6 0q0 0 0 0c-1.2 0-2.2-1-2.2-2.2v-25.6c0-1.2 1-2.2 2.2-2.2 0 0 25.2 0 25.6 0q0 0 0 0zm-18.9 11.3h-4.5v14.3h4.5zm-2.2-2c1.4 0 2.6-1.1 2.6-2.6q0 0 0 0c0-1.4-1.2-2.6-2.6-2.6-1.4 0-2.6 1.2-2.6 2.6 0 1.4 1.1 2.6 2.6 2.6q0 0 0 0zm18.9 8.4c0-3.8-0.9-6.8-5.4-6.8q-0.1 0-0.1 0c-1.8 0-3.3 0.9-4.1 2.3v-1.9h-4.3v14.3h4.4v-7.1c0-1.9 0.4-3.7 2.7-3.7 2.3 0 2.3 2.2 2.3 3.8v7h4.5c0 0 0-7.9 0-7.9z"/></svg>